<svg version="1.1" id="Layer_1" xmlns="http://www.w3.org/2000/svg" xmlns:xlink="http://www.w3.org/1999/xlink" x="0px" y="0px"
	 width="100%" viewBox="0 0 1115 431" enable-background="new 0 0 1115 431" xml:space="preserve" fill="none">
<path
	d="
M872.000000,432.000000 
	C581.333313,432.000000 291.166656,432.000000 1.000000,432.000000 
	C1.000000,288.333344 1.000000,144.666672 1.000000,1.000000 
	C372.666656,1.000000 744.333313,1.000000 1116.000000,1.000000 
	C1116.000000,144.666672 1116.000000,288.333344 1116.000000,432.000000 
	C1034.833374,432.000000 953.666687,432.000000 872.000000,432.000000 
M608.938965,337.622986 
	C621.407043,357.007874 633.875305,376.392670 646.343018,395.777802 
	C647.825134,398.082245 649.574951,399.121185 652.667480,399.109985 
	C696.998962,398.949005 741.331177,399.002411 785.663269,398.988892 
	C787.055664,398.988464 788.448059,398.823578 790.510315,398.692932 
	C781.902832,386.407379 773.795166,374.673096 765.521423,363.057129 
	C743.054993,331.515228 720.507568,300.031097 698.013306,268.509033 
	C684.879700,250.104309 671.882263,231.600952 658.562012,213.332687 
	C656.758545,210.859299 657.006714,209.156693 658.375793,207.234497 
	C666.118774,196.363663 673.967468,185.568146 681.768921,174.738876 
	C696.322937,154.536301 710.850159,134.314423 725.425171,114.127029 
	C736.003418,99.475403 746.694336,84.904938 757.234619,70.226128 
	C765.744751,58.374596 774.104858,46.415318 782.566467,34.454414 
	C782.143250,34.259342 781.884216,34.035374 781.625000,34.035240 
	C738.459778,34.013077 695.294434,33.973087 652.129761,34.125320 
	C650.420959,34.131348 648.100098,35.556728 647.109619,37.025581 
	C637.936584,50.629082 628.998291,64.390793 619.982361,78.100342 
	C609.921448,93.398918 599.850647,108.690979 589.447510,124.497322 
	C582.018066,113.488182 574.929016,102.996124 567.853027,92.495308 
	C555.410400,74.030327 543.019165,55.530323 530.454895,37.148540 
	C529.456665,35.688118 527.286743,34.136360 525.655884,34.130512 
	C480.326202,33.968033 434.995758,34.000214 389.168640,34.000214 
	C389.891602,35.355484 390.368225,36.537758 391.085602,37.549274 
	C398.617828,48.169670 406.263641,58.710186 413.734314,69.373451 
	C434.539764,99.070129 455.264069,128.823639 476.045959,158.536819 
	C488.534576,176.392548 501.113251,194.185654 513.496643,212.113831 
	C514.376160,213.387161 514.800903,216.107651 514.049194,217.200699 
	C505.936890,228.996887 497.580536,240.626373 489.223755,252.253159 
	C472.505615,275.513245 455.745270,298.743042 439.002808,321.985687 
	C428.253937,336.907745 417.464325,351.800690 406.771484,366.762817 
	C399.242157,377.298309 391.844849,387.928131 384.047638,399.000000 
	C386.249542,399.000000 387.862335,399.000000 389.475128,399.000000 
	C431.307281,399.000000 473.141602,398.780334 514.969543,399.198547 
	C522.679260,399.275604 527.326294,397.489868 531.309875,390.498260 
	C539.980530,375.279907 549.685059,360.648132 559.042542,345.824249 
	C568.051270,331.552856 577.154968,317.341431 586.360718,302.877838 
	C593.871155,314.457947 601.187561,325.738861 608.938965,337.622986 
M73.943588,99.361298 
	C72.213799,101.160629 70.325737,102.834122 68.779160,104.779144 
	C55.951004,120.912224 45.626472,138.502533 37.755123,157.579132 
	C28.801912,179.277679 23.418201,201.909210 22.277422,225.206375 
	C21.496668,241.151062 22.791348,257.269684 24.148441,273.226318 
	C25.494196,289.049652 30.888077,303.992249 38.143963,317.996399 
	C46.754288,334.614685 57.842896,349.450165 72.172661,361.864471 
	C82.609917,370.906555 93.659813,379.036591 106.065468,384.803345 
	C118.201912,390.444977 130.896851,395.061157 143.667328,399.117920 
	C159.419586,404.121948 175.817596,406.516571 192.319931,406.861267 
	C207.565338,407.179657 222.877487,406.917969 238.080582,405.814331 
	C250.071396,404.943848 262.121216,403.173828 273.823059,400.430786 
	C292.042114,396.160004 309.261749,389.016663 325.354309,379.275085 
	C344.699890,367.564331 360.685516,352.164185 375.563019,334.626770 
	C350.950897,311.059204 326.589478,287.731720 302.805725,264.957367 
	C295.118103,272.196259 288.449219,279.080048 281.154205,285.219849 
	C265.781982,298.157806 247.743225,305.221252 227.829712,306.883820 
	C214.331085,308.010773 201.049973,306.094055 188.339340,301.000336 
	C172.304062,294.574310 160.399536,283.631317 153.104553,268.040924 
	C144.881897,250.467926 145.219162,231.654480 148.294983,213.294907 
	C152.638779,187.366684 163.434418,164.369476 184.355682,147.071548 
	C200.112457,134.043686 218.317368,127.350906 238.423798,126.192238 
	C246.870819,125.705460 255.551208,126.693069 263.929138,128.144119 
	C279.149475,130.780228 291.929932,138.688644 302.638489,149.495499 
	C308.312622,155.221710 312.676270,162.246521 317.687469,168.757797 
	C332.969086,156.804733 348.420624,144.754807 363.831635,132.653305 
	C376.680145,122.564003 389.289642,112.154976 402.421173,102.450722 
	C406.309875,99.576981 406.315094,97.891319 403.921478,94.306915 
	C397.734314,85.041580 391.410553,75.876999 382.469849,69.061302 
	C373.159424,61.963726 364.001373,54.447994 353.892517,48.659176 
	C329.033142,34.423489 301.508575,27.989164 273.291443,26.325924 
	C249.788681,24.940565 226.147202,25.322567 202.674103,29.769003 
	C181.170029,33.842445 160.400833,39.887074 140.699310,49.179176 
	C115.250534,61.181938 92.998375,77.754791 73.943588,99.361298 
M805.000000,41.566689 
	C805.000000,160.634796 805.000000,279.702911 805.000000,398.649231 
	C901.378662,398.649231 997.094238,398.649231 1092.512939,398.649231 
	C1092.512939,366.994751 1092.512939,335.691223 1092.512939,303.497467 
	C1065.538208,302.538879 1038.336426,303.112610 1011.148193,303.020599 
	C983.546997,302.927216 955.945251,303.000000 927.880249,303.000000 
	C927.880249,213.071716 927.880249,123.687820 927.880249,34.323685 
	C886.689880,34.323685 845.967529,34.323685 805.000000,34.323685 
	C805.000000,36.625660 805.000000,38.605682 805.000000,41.566689 
z"/>
<path fill="#CD292F" opacity="1.000000" stroke="none" 
	d="
M608.721436,337.321381 
	C601.187561,325.738861 593.871155,314.457947 586.360718,302.877838 
	C577.154968,317.341431 568.051270,331.552856 559.042542,345.824249 
	C549.685059,360.648132 539.980530,375.279907 531.309875,390.498260 
	C527.326294,397.489868 522.679260,399.275604 514.969543,399.198547 
	C473.141602,398.780334 431.307281,399.000000 389.475128,399.000000 
	C387.862335,399.000000 386.249542,399.000000 384.047638,399.000000 
	C391.844849,387.928131 399.242157,377.298309 406.771484,366.762817 
	C417.464325,351.800690 428.253937,336.907745 439.002808,321.985687 
	C455.745270,298.743042 472.505615,275.513245 489.223755,252.253159 
	C497.580536,240.626373 505.936890,228.996887 514.049194,217.200699 
	C514.800903,216.107651 514.376160,213.387161 513.496643,212.113831 
	C501.113251,194.185654 488.534576,176.392548 476.045959,158.536819 
	C455.264069,128.823639 434.539764,99.070129 413.734314,69.373451 
	C406.263641,58.710186 398.617828,48.169670 391.085602,37.549274 
	C390.368225,36.537758 389.891602,35.355484 389.168640,34.000214 
	C434.995758,34.000214 480.326202,33.968033 525.655884,34.130512 
	C527.286743,34.136360 529.456665,35.688118 530.454895,37.148540 
	C543.019165,55.530323 555.410400,74.030327 567.853027,92.495308 
	C574.929016,102.996124 582.018066,113.488182 589.447510,124.497322 
	C599.850647,108.690979 609.921448,93.398918 619.982361,78.100342 
	C628.998291,64.390793 637.936584,50.629082 647.109619,37.025581 
	C648.100098,35.556728 650.420959,34.131348 652.129761,34.125320 
	C695.294434,33.973087 738.459778,34.013077 781.625000,34.035240 
	C781.884216,34.035374 782.143250,34.259342 782.566467,34.454414 
	C774.104858,46.415318 765.744751,58.374596 757.234619,70.226128 
	C746.694336,84.904938 736.003418,99.475403 725.425171,114.127029 
	C710.850159,134.314423 696.322937,154.536301 681.768921,174.738876 
	C673.967468,185.568146 666.118774,196.363663 658.375793,207.234497 
	C657.006714,209.156693 656.758545,210.859299 658.562012,213.332687 
	C671.882263,231.600952 684.879700,250.104309 698.013306,268.509033 
	C720.507568,300.031097 743.054993,331.515228 765.521423,363.057129 
	C773.795166,374.673096 781.902832,386.407379 790.510315,398.692932 
	C788.448059,398.823578 787.055664,398.988464 785.663269,398.988892 
	C741.331177,399.002411 696.998962,398.949005 652.667480,399.109985 
	C649.574951,399.121185 647.825134,398.082245 646.343018,395.777802 
	C633.875305,376.392670 621.407043,357.007874 608.721436,337.321381 
z"/>
<path fill="#CD292F" opacity="1.000000" stroke="none" 
	d="
M73.998840,99.006699 
	C92.998375,77.754791 115.250534,61.181938 140.699310,49.179176 
	C160.400833,39.887074 181.170029,33.842445 202.674103,29.769003 
	C226.147202,25.322567 249.788681,24.940565 273.291443,26.325924 
	C301.508575,27.989164 329.033142,34.423489 353.892517,48.659176 
	C364.001373,54.447994 373.159424,61.963726 382.469849,69.061302 
	C391.410553,75.876999 397.734314,85.041580 403.921478,94.306915 
	C406.315094,97.891319 406.309875,99.576981 402.421173,102.450722 
	C389.289642,112.154976 376.680145,122.564003 363.831635,132.653305 
	C348.420624,144.754807 332.969086,156.804733 317.687469,168.757797 
	C312.676270,162.246521 308.312622,155.221710 302.638489,149.495499 
	C291.929932,138.688644 279.149475,130.780228 263.929138,128.144119 
	C255.551208,126.693069 246.870819,125.705460 238.423798,126.192238 
	C218.317368,127.350906 200.112457,134.043686 184.355682,147.071548 
	C163.434418,164.369476 152.638779,187.366684 148.294983,213.294907 
	C145.219162,231.654480 144.881897,250.467926 153.104553,268.040924 
	C160.399536,283.631317 172.304062,294.574310 188.339340,301.000336 
	C201.049973,306.094055 214.331085,308.010773 227.829712,306.883820 
	C247.743225,305.221252 265.781982,298.157806 281.154205,285.219849 
	C288.449219,279.080048 295.118103,272.196259 302.805725,264.957367 
	C326.589478,287.731720 350.950897,311.059204 375.563019,334.626770 
	C360.685516,352.164185 344.699890,367.564331 325.354309,379.275085 
	C309.261749,389.016663 292.042114,396.160004 273.823059,400.430786 
	C262.121216,403.173828 250.071396,404.943848 238.080582,405.814331 
	C222.877487,406.917969 207.565338,407.179657 192.319931,406.861267 
	C175.817596,406.516571 159.419586,404.121948 143.667328,399.117920 
	C130.896851,395.061157 118.201912,390.444977 106.065468,384.803345 
	C93.659813,379.036591 82.609917,370.906555 72.172661,361.864471 
	C57.842896,349.450165 46.754288,334.614685 38.143963,317.996399 
	C30.888077,303.992249 25.494196,289.049652 24.148441,273.226318 
	C22.791348,257.269684 21.496668,241.151062 22.277422,225.206375 
	C23.418201,201.909210 28.801912,179.277679 37.755123,157.579132 
	C45.626472,138.502533 55.951004,120.912224 68.779160,104.779144 
	C70.325737,102.834122 72.213799,101.160629 73.998840,99.006699 
z"/>
<path fill="#CD292F" opacity="1.000000" stroke="none" 
	d="
M805.000000,41.076195 
	C805.000000,38.605682 805.000000,36.625660 805.000000,34.323685 
	C845.967529,34.323685 886.689880,34.323685 927.880249,34.323685 
	C927.880249,123.687820 927.880249,213.071716 927.880249,303.000000 
	C955.945251,303.000000 983.546997,302.927216 1011.148193,303.020599 
	C1038.336426,303.112610 1065.538208,302.538879 1092.512939,303.497467 
	C1092.512939,335.691223 1092.512939,366.994751 1092.512939,398.649231 
	C997.094238,398.649231 901.378662,398.649231 805.000000,398.649231 
	C805.000000,279.702911 805.000000,160.634796 805.000000,41.076195 
z"/>
</svg>