<svg width="355" height="173" viewBox="0 0 355 173" fill="none" xmlns="http://www.w3.org/2000/svg">
    <path
        d="M84.7213 139.269C74.5115 139.269 65.5779 137.425 57.9205 133.739C50.2631 129.957 44.3074 124.758 40.0533 118.14C35.8937 111.428 33.8139 103.676 33.8139 94.8844C33.8139 86.1872 35.3265 78.1989 38.3516 70.9197C41.4713 63.6404 45.8199 57.3538 51.3975 52.0598C56.9751 46.7658 63.5926 42.7008 71.25 39.8647C78.9074 36.9341 87.321 35.4688 96.491 35.4688C106.039 35.4688 114.5 37.1705 121.874 40.5738C129.248 43.977 134.731 48.8929 138.323 55.3213L114.216 74.1811C112.137 70.4943 109.442 67.6582 106.134 65.6729C102.825 63.5932 98.9016 62.5533 94.3639 62.5533C90.3934 62.5533 86.7538 63.3096 83.4451 64.8221C80.2309 66.2402 77.4421 68.3199 75.0787 71.0615C72.7153 73.7085 70.8719 76.8754 69.5484 80.5623C68.2249 84.2492 67.5631 88.3142 67.5631 92.7574C67.5631 96.6333 68.4139 100.037 70.1156 102.967C71.8172 105.898 74.1806 108.167 77.2057 109.774C80.3254 111.381 83.9178 112.184 87.9828 112.184C91.8587 112.184 95.6402 111.286 99.3271 109.49C103.108 107.694 106.701 104.763 110.104 100.698L129.815 119.558C123.764 126.932 117.005 132.084 109.537 135.015C102.163 137.851 93.8913 139.269 84.7213 139.269ZM132.387 137L176.63 75.1738L176.488 98.5713L133.663 37.7377H171.241L196.199 74.6066L180.175 74.7484L204.565 37.7377H240.583L197.758 97.2951V74.0393L242.71 137H204.423L179.466 98.4295L194.922 98.2877L170.532 137H132.387ZM246.711 137V37.7377H280.176V111.05H324.986V137H246.711Z"
        fill="#D61F2C" />
</svg>
    